HIERARCHY
ROOT Hips
{
	OFFSET -3.958830 18.904000 13.208200
	CHANNELS 6 Xposition Yposition Zposition Zrotation Yrotation Xrotation 
	JOINT LHipJoint
	{
		OFFSET 0.000000 0.000000 0.000000
		CHANNELS 3 Zrotation Yrotation Xrotation
		JOINT LeftUpLeg
		{
			OFFSET 1.800000 -1.400000 0.085000
			CHANNELS 3 Zrotation Yrotation Xrotation
			JOINT LeftLeg
			{
				OFFSET 2.215000 -6.000000 0.000000
				CHANNELS 3 Zrotation Yrotation Xrotation
				JOINT LeftFoot
				{
					OFFSET 2.500000 -6.900000 0.000000
					CHANNELS 3 Zrotation Yrotation Xrotation
					JOINT LeftToeBase
					{
						OFFSET 0.200000 -0.500000 1.950000
						CHANNELS 3 Zrotation Yrotation Xrotation
						End Site
						{
							OFFSET 0.000000 0.000000 0.000000
						}
					}
				}
			}
		}
	}
	JOINT RHipJoint
	{
		OFFSET 0.000000 0.000000 0.000000
		CHANNELS 3 Zrotation Yrotation Xrotation
		JOINT RightUpLeg
		{
			OFFSET -1.800000 -1.400000 0.085000
			CHANNELS 3 Zrotation Yrotation Xrotation
			JOINT RightLeg
			{
				OFFSET -2.215000 -6.000000 0.000000
				CHANNELS 3 Zrotation Yrotation Xrotation
				JOINT RightFoot
				{
					OFFSET -2.500000 -6.900000 0.000000
					CHANNELS 3 Zrotation Yrotation Xrotation
					JOINT RightToeBase
					{
						OFFSET -0.200000 -0.500000 1.950000
						CHANNELS 3 Zrotation Yrotation Xrotation
						End Site
						{
							OFFSET 0.000000 0.000000 0.000000
						}
					}
				}
			}
		}
	}
	JOINT LowerBack
	{
		OFFSET 0.000000 0.000000 0.000000
		CHANNELS 3 Zrotation Yrotation Xrotation
		JOINT Spine
		{
			OFFSET -0.087000 1.940000 -0.288900
			CHANNELS 3 Zrotation Yrotation Xrotation
			JOINT Spine1
			{
				OFFSET 0.000000 1.950000 0.060000
				CHANNELS 3 Zrotation Yrotation Xrotation
				JOINT Neck
				{
					OFFSET 0.000000 0.000000 0.000000
					CHANNELS 3 Zrotation Yrotation Xrotation
					JOINT Neck1
					{
						OFFSET 0.000000 1.600000 0.340000
						CHANNELS 3 Zrotation Yrotation Xrotation
						JOINT Head
						{
							OFFSET 0.000000 1.667000 -0.240000
							CHANNELS 3 Zrotation Yrotation Xrotation
							End Site
							{
								OFFSET 0.000000 0.000000 0.000000
							}
						}
					}
				}
				JOINT LeftShoulder
				{
					OFFSET 0.000000 0.000000 0.000000
					CHANNELS 3 Zrotation Yrotation Xrotation
					JOINT LeftArm
					{
						OFFSET 2.700000 1.550000 -0.730000
						CHANNELS 3 Zrotation Yrotation Xrotation
						JOINT LeftForeArm
						{
							OFFSET 5.450000 0.000000 0.000000
							CHANNELS 3 Zrotation Yrotation Xrotation
							JOINT LeftHand
							{
								OFFSET 3.450000 0.000000 0.000000
								CHANNELS 3 Zrotation Yrotation Xrotation
								JOINT LeftHandIndex1
								{
									OFFSET 0.750000 0.000000 0.000000
									CHANNELS 3 Zrotation Yrotation Xrotation
									End Site
									{
										OFFSET 0.000000 0.000000 0.000000
									}
								}
							}
						}
					}
				}
				JOINT RightShoulder
				{
					OFFSET 0.000000 0.000000 0.000000
					CHANNELS 3 Zrotation Yrotation Xrotation
					JOINT RightArm
					{
						OFFSET -2.700000 1.550000 -0.730000
						CHANNELS 3 Zrotation Yrotation Xrotation
						JOINT RightForeArm
						{
							OFFSET -5.450000 0.000000 0.000000
							CHANNELS 3 Zrotation Yrotation Xrotation
							JOINT RightHand
							{
								OFFSET -3.450000 0.000000 0.000000
								CHANNELS 3 Zrotation Yrotation Xrotation
								JOINT RightHandIndex1
								{
									OFFSET -0.750000 0.000000 0.000000
									CHANNELS 3 Zrotation Yrotation Xrotation
									End Site
									{
										OFFSET 0.000000 0.000000 0.000000
									}
								}
							}
						}
					}
				}
			}
		}
	}
}
MOTION
Frames: 8
Frame Time: 0.016667
-4.967230 17.178000 -3.572160 -6.395028 -4.037487 -9.398470 -15.765012 11.611915 5.139768 25.781174 4.519726 -43.659775 -7.208608 15.166440 39.759879 0.230785 9.369152 1.037632 -0.504870 -0.692000 -0.533530 18.176168 -8.173851 3.508801 -7.373724 15.411163 -20.841740 22.332186 -19.088878 52.650742 -1.707123 -9.742406 1.113505 -0.543230 0.424430 0.064250 -2.715176 -2.944249 -9.637828 -1.806458 7.095975 55.367366 -7.612688 12.029819 -21.286888 5.978446 -10.567401 -10.489921 -23.111883 12.132547 46.120479 13.339420 -2.398060 -21.580100 -12.082635 17.959102 -3.119315 -63.763529 11.379760 -13.015273 -38.822547 -35.583750 8.949846 -3.579549 2.532145 0.901970 -0.214250 0.122980 -0.040070 -0.061181 0.868883 7.356176 40.112531 -10.554455 -19.216768 -55.623844 56.264967 -22.671786 1.717291 -0.230554 -0.377110 0.482070 0.601440 0.024890 
-4.973480 17.175730 -3.548570 -6.711216 -4.224455 -9.660040 -15.766840 11.574817 5.206952 26.672628 4.680604 -43.235994 -7.856533 15.429514 39.684208 0.250797 9.470270 1.000212 -0.480980 -0.662510 -0.519320 18.185299 -8.171327 3.456901 -6.690921 15.262155 -20.161127 21.910566 -18.990267 52.776503 -1.726677 -9.710946 1.125021 -0.533180 0.405940 0.066920 -2.732233 -2.928222 -9.652178 -1.721219 6.595200 55.813829 -8.036617 11.468709 -22.199829 6.310713 -10.829713 -10.346324 -23.886944 12.837060 46.427504 13.485050 -2.065350 -22.730030 -13.922933 17.571798 -3.530715 -62.766037 11.368212 -13.145975 -35.805723 -35.331017 7.932740 -3.569660 2.506024 0.916980 -0.233820 0.143420 -0.034660 1.169010 1.178415 7.274904 38.802424 -10.953793 -19.036646 -54.600550 56.870075 -22.283580 1.711291 -0.216956 -0.366580 0.483710 0.588740 0.025650 
-4.975670 17.180640 -3.524920 -7.237677 -4.193085 -9.656559 -15.773343 11.531046 5.299239 27.550748 4.733471 -43.126167 -8.315981 15.538298 39.499983 0.255708 9.529298 0.979268 -0.468640 -0.652580 -0.497130 18.190305 -8.153309 3.407449 -6.025487 15.015418 -19.593147 21.760378 -18.927398 52.458400 -1.730396 -9.628024 1.150159 -0.531440 0.384190 0.062020 -2.737410 -2.946077 -9.683058 -1.317433 5.753126 56.026377 -8.607232 10.718490 -23.427684 6.881621 -10.987196 -10.203194 -24.403285 13.430891 47.119919 12.873320 -1.606940 -23.485780 -16.404241 16.988646 -4.052026 -61.122724 11.559244 -13.265206 -31.811228 -34.710751 6.576662 -3.559806 2.462996 0.933960 -0.253160 0.159370 -0.038430 2.569707 1.599931 7.284496 37.563135 -11.317503 -18.770437 -53.953694 57.162616 -21.966998 1.715376 -0.198198 -0.365650 0.488720 0.581310 0.017000 
-4.973360 17.186140 -3.495130 -7.778669 -4.016368 -9.496741 -15.759544 11.433208 5.419179 28.519187 4.707059 -43.032101 -9.144680 15.754486 39.235433 0.263847 9.607554 0.944772 -0.444500 -0.622360 -0.476810 18.214118 -8.160750 3.358827 -5.546696 14.700681 -19.155397 21.761743 -18.920834 51.956954 -1.735667 -9.535108 1.173040 -0.518020 0.353830 0.059180 -2.798818 -2.853982 -9.715728 -0.491775 4.485408 55.828785 -9.442962 9.596628 -24.444407 7.381461 -11.174221 -10.114015 -25.134752 14.176792 47.827421 12.610850 -1.207950 -24.534490 -18.756004 16.035493 -4.411896 -59.493029 11.649035 -13.416836 -26.888699 -33.362343 4.839206 -3.535259 2.427715 0.951700 -0.278150 0.182920 -0.039250 3.984601 2.183887 7.306890 36.481076 -11.587296 -18.630466 -52.873502 57.794392 -21.647574 1.712984 -0.181230 -0.357470 0.489840 0.569540 0.011580 
-4.976290 17.197160 -3.456760 -8.031450 -3.939871 -9.391837 -15.739332 11.348002 5.516249 29.332304 4.663319 -42.681311 -10.173790 16.037542 38.849802 0.263066 9.676242 0.901842 -0.402700 -0.578080 -0.423460 18.233465 -8.211699 3.310267 -5.332343 14.354505 -18.621535 21.746833 -18.905789 51.489463 -1.748077 -9.445773 1.184079 -0.497680 0.300460 0.061780 -2.860625 -2.696848 -9.742171 0.343418 3.656894 54.899723 -10.364521 8.765365 -25.096429 7.847748 -10.856432 -9.951741 -25.017249 14.561454 49.916257 12.036350 -0.684410 -25.545080 -21.402549 14.673457 -4.844569 -57.075287 11.132486 -13.023825 -21.906999 -30.286187 2.920192 -3.508352 2.390581 0.980450 -0.308750 0.221160 -0.050600 5.743220 2.699688 7.388893 35.883521 -12.261234 -18.606882 -51.888858 57.734090 -21.144405 1.723605 -0.178971 -0.344260 0.481030 0.548560 -0.008690 
-4.978320 17.209120 -3.413660 -8.317495 -3.892829 -9.658724 -15.700268 11.262022 5.597903 30.226637 4.669022 -41.895976 -11.483681 16.374675 38.305946 0.255694 9.749823 0.852393 -0.337350 -0.502290 -0.350150 18.265080 -8.317312 3.246261 -4.914150 13.921787 -17.595586 21.476612 -18.784596 51.089482 -1.770244 -9.343009 1.203880 -0.458580 0.234970 0.062550 -2.966252 -2.438125 -9.755094 1.735832 2.793773 53.789761 -11.726395 8.048348 -25.160996 8.244576 -10.265114 -9.560646 -24.368560 14.697516 52.672659 11.541180 -0.087120 -27.340200 -24.379155 13.100175 -5.438360 -54.134014 9.802355 -12.077088 -17.089760 -25.890322 1.194839 -3.476859 2.346693 1.016710 -0.343200 0.270790 -0.059860 7.800076 2.970357 7.353573 35.124201 -12.890777 -18.559726 -50.492465 57.472340 -20.473302 1.736815 -0.185242 -0.328590 0.479530 0.515230 -0.035190 
-4.982590 17.213510 -3.368090 -8.669879 -3.770378 -9.822242 -15.656483 11.110989 5.719711 31.283208 4.703556 -41.296185 -13.027933 16.851706 37.801811 0.257966 9.894916 0.785680 -0.272100 -0.429320 -0.277600 18.310188 -8.402377 3.197222 -4.595554 13.530588 -16.799497 21.506903 -18.874202 50.719308 -1.808023 -9.302329 1.197598 -0.414100 0.179570 0.074580 -3.099830 -2.113962 -9.801186 3.642164 1.811194 51.936889 -13.435379 7.386550 -24.539080 8.651485 -9.369472 -9.178930 -22.907195 14.253708 55.641794 10.388260 0.354870 -28.279190 -27.158120 11.257540 -5.897953 -50.936970 8.103272 -10.668330 -13.470619 -20.529782 -0.031683 -3.458976 2.309894 1.045230 -0.363820 0.319460 -0.061150 9.522233 3.151108 7.359555 35.083122 -13.215329 -18.549845 -49.231876 56.371916 -19.652269 1.757574 -0.221115 -0.314830 0.477620 0.482260 -0.059560 
-4.998650 17.215700 -3.319580 -8.726266 -3.584930 -9.938785 -15.606431 10.936067 5.857625 32.198476 4.633921 -40.759629 -15.036007 17.433030 37.078048 0.290666 10.041901 0.728844 -0.195150 -0.340250 -0.214730 18.362274 -8.498083 3.137291 -4.467205 13.067781 -16.158879 21.376533 -18.923525 50.476350 -1.838979 -9.278819 1.193671 -0.366050 0.134140 0.086830 -3.250792 -1.762598 -9.836360 5.030987 0.899440 49.873703 -14.816797 6.471735 -23.829116 8.779951 -8.768931 -8.729914 -21.741967 14.008208 57.260491 9.764090 0.818810 -28.729270 -29.076020 9.964512 -6.069373 -48.501225 6.752176 -9.377429 -11.016319 -16.167629 -0.665163 -3.437388 2.305539 1.050920 -0.377810 0.354820 -0.047490 10.915000 2.961311 7.103906 34.717275 -12.788019 -18.307708 -47.199715 56.252601 -18.871165 1.773743 -0.274587 -0.287320 0.463730 0.436190 -0.070470 
